HIERARCHY
ROOT Hips
{
	OFFSET 0.000000 0.000000 0.000000
	CHANNELS 6 Xposition Yposition Zposition Zrotation Yrotation Xrotation
	JOINT LHipJoint
	{
		OFFSET 0.000000 0.000000 0.000000
		CHANNELS 3 Zrotation Yrotation Xrotation
		JOINT LeftUpLeg
		{
			OFFSET 1.363060 -1.794630 0.839290
			CHANNELS 3 Zrotation Yrotation Xrotation
			JOINT LeftLeg
			{
				OFFSET 2.448110 -6.726130 0.000000
				CHANNELS 3 Zrotation Yrotation Xrotation
				JOINT LeftFoot
				{
					OFFSET 2.562200 -7.039590 0.000000
					CHANNELS 3 Zrotation Yrotation Xrotation
					JOINT LeftToeBase
					{
						OFFSET 0.157640 -0.433110 2.322550
						CHANNELS 3 Zrotation Yrotation Xrotation
						End Site
						{
							OFFSET 0.000000 0.000000 0.000000
						}
					}
				}
			}
		}
	}
	JOINT RHipJoint
	{
		OFFSET 0.000000 0.000000 0.000000
		CHANNELS 3 Zrotation Yrotation Xrotation
		JOINT RightUpLeg
		{
			OFFSET -1.305520 -1.794630 0.839290
			CHANNELS 3 Zrotation Yrotation Xrotation
			JOINT RightLeg
			{
				OFFSET -2.542530 -6.985550 0.000000
				CHANNELS 3 Zrotation Yrotation Xrotation
				JOINT RightFoot
				{
					OFFSET -2.568260 -7.056230 0.000000
					CHANNELS 3 Zrotation Yrotation Xrotation
					JOINT RightToeBase
					{
						OFFSET -0.164730 -0.452590 2.363150
						CHANNELS 3 Zrotation Yrotation Xrotation
						End Site
						{
							OFFSET 0.000000 0.000000 0.000000
						}
					}
				}
			}
		}
	}
	JOINT LowerBack
	{
		OFFSET 0.000000 0.000000 0.000000
		CHANNELS 3 Zrotation Yrotation Xrotation
		JOINT Spine
		{
			OFFSET 0.028270 2.035590 -0.193380
			CHANNELS 3 Zrotation Yrotation Xrotation
			JOINT Spine1
			{
				OFFSET 0.056720 2.048850 -0.042750
				CHANNELS 3 Zrotation Yrotation Xrotation
				JOINT Neck
				{
					OFFSET 0.000000 0.000000 0.000000
					CHANNELS 3 Zrotation Yrotation Xrotation
					JOINT Neck1
					{
						OFFSET -0.054170 1.746240 0.172020
						CHANNELS 3 Zrotation Yrotation Xrotation
						JOINT Head
						{
							OFFSET 0.104070 1.761360 -0.123970
							CHANNELS 3 Zrotation Yrotation Xrotation
							End Site
							{
								OFFSET 0.000000 0.000000 0.000000
							}
						}
					}
				}
				JOINT LeftShoulder
				{
					OFFSET 0.000000 0.000000 0.000000
					CHANNELS 3 Zrotation Yrotation Xrotation
					JOINT LeftArm
					{
						OFFSET 3.362410 1.200890 -0.311210
						CHANNELS 3 Zrotation Yrotation Xrotation
						JOINT LeftForeArm
						{
							OFFSET 4.983000 -0.000000 -0.000000
							CHANNELS 3 Zrotation Yrotation Xrotation
							JOINT LeftHand
							{
								OFFSET 3.483560 -0.000000 -0.000000
								CHANNELS 3 Zrotation Yrotation Xrotation
								JOINT LeftFingerBase
								{
									OFFSET 0.000000 0.000000 0.000000
									CHANNELS 3 Zrotation Yrotation Xrotation
									JOINT LeftHandIndex1
									{
										OFFSET 0.715260 -0.000000 -0.000000
										CHANNELS 3 Zrotation Yrotation Xrotation
										End Site
										{
											OFFSET 0.000000 0.000000 0.000000
										}
									}
								}
								JOINT LThumb
								{
									OFFSET 0.000000 0.000000 0.000000
									CHANNELS 3 Zrotation Yrotation Xrotation
									End Site
									{
										OFFSET 0.000000 0.000000 0.000000
									}
								}
							}
						}
					}
				}
				JOINT RightShoulder
				{
					OFFSET 0.000000 0.000000 0.000000
					CHANNELS 3 Zrotation Yrotation Xrotation
					JOINT RightArm
					{
						OFFSET -3.136600 1.374050 -0.404650
						CHANNELS 3 Zrotation Yrotation Xrotation
						JOINT RightForeArm
						{
							OFFSET -5.241900 -0.000000 -0.000000
							CHANNELS 3 Zrotation Yrotation Xrotation
							JOINT RightHand
							{
								OFFSET -3.444170 -0.000000 -0.000000
								CHANNELS 3 Zrotation Yrotation Xrotation
								JOINT RightFingerBase
								{
									OFFSET 0.000000 0.000000 0.000000
									CHANNELS 3 Zrotation Yrotation Xrotation
									JOINT RightHandIndex1
									{
										OFFSET -0.622530 -0.000000 -0.000000
										CHANNELS 3 Zrotation Yrotation Xrotation
										End Site
										{
											OFFSET 0.000000 0.000000 0.000000
										}
									}
								}
								JOINT RThumb
								{
									OFFSET 0.000000 0.000000 0.000000
									CHANNELS 3 Zrotation Yrotation Xrotation
									End Site
									{
										OFFSET 0.000000 0.000000 0.000000
									}
								}
							}
						}
					}
				}
			}
		}
	}
}
MOTION
Frames: 12
Frame Time: 0.008333
2.835826 8.358659 -9.274076 -2.708535 7.819707 2.863098 -0.220720 0.171677 0.031799 -5.496584 -2.644531 -22.861679 0.247144 5.875756 15.907112 -1.137139 -1.547318 4.718053 0.293496 1.830242 1.177431 0.186732 -1.036458 1.605154 14.522365 3.638141 0.631596 -0.462730 -4.665987 12.583913 0.021747 2.471476 -2.190132 -0.070561 0.114306 1.530843 1.598906 1.660554 0.876284 1.179955 2.219654 -0.840550 0.089444 1.379532 -0.910633 -2.306454 -1.166587 -5.195878 2.185835 -1.341490 6.856096 0.941371 -0.726461 4.176191 -0.272569 0.638421 -0.222782 -42.911446 7.413253 3.596554 4.164679 -8.326112 -0.874187 -0.291530 -0.208066 6.398458 8.029971 2.566811 0.848024 -3.549380 0.000000 0.000000 -5.014120 17.759457 0.508033 0.814296 0.093051 -0.319852 38.533398 3.132813 13.691005 -12.122377 16.754473 -4.895205 0.375788 -0.077037 -3.878640 -10.881639 -0.017009 -0.909836 3.541617 0.000000 0.000000 2.278965 -15.986858 -1.778559
2.877297 8.424459 -9.365649 -2.735899 7.883726 2.878208 -0.228162 0.170427 0.028965 -5.552805 -2.670075 -23.066967 0.250284 5.922473 16.037312 -1.147730 -1.575680 4.741218 0.293516 1.829804 1.139101 0.182271 -1.047111 1.615050 14.633897 3.662072 0.624442 -0.471305 -4.714231 12.681388 0.019819 2.476743 -2.237383 -0.072842 0.111430 1.521472 1.605668 1.672094 0.878657 1.188087 2.235118 -0.851025 0.088130 1.389082 -0.924557 -2.329292 -1.179325 -5.243931 2.201262 -1.356730 6.908482 0.945539 -0.735231 4.207654 -0.279095 0.640156 -0.225541 -43.288475 7.466536 3.609841 4.195431 -8.403153 -0.883344 -0.294741 -0.211258 6.434574 8.093874 2.574894 0.851425 -3.580411 0.000000 0.000000 -5.082871 17.871607 0.476871 0.815313 0.089454 -0.323943 38.834663 3.148302 13.791123 -12.236612 16.880726 -4.944650 0.377762 -0.078697 -3.922426 -11.045224 -0.052563 -0.970540 3.569674 0.000000 0.000000 2.227154 -16.163925 -1.867049
2.918836 8.490396 -9.456705 -2.763140 7.947962 2.893503 -0.235443 0.169256 0.026216 -5.608787 -2.695436 -23.271864 0.253509 5.969360 16.167965 -1.158265 -1.603824 4.764667 0.293584 1.829517 1.101216 0.178003 -1.057693 1.625064 14.745779 3.686218 0.617643 -0.479807 -4.762351 12.779257 0.017984 2.482480 -2.283995 -0.075041 0.108769 1.512751 1.612600 1.683727 0.881323 1.196313 2.250711 -0.861272 0.086958 1.398707 -0.938180 -2.351863 -1.191872 -5.291645 2.216841 -1.371716 6.961232 0.949921 -0.743875 4.239396 -0.285308 0.642140 -0.228237 -43.663975 7.520357 3.624538 4.226559 -8.479678 -0.892373 -0.297909 -0.214352 6.471963 8.158480 2.584048 0.855330 -3.611340 0.000000 0.000000 -5.149376 17.986477 0.448196 0.816689 0.086124 -0.327938 39.137367 3.164373 13.892093 -12.349909 17.007839 -4.993520 0.379811 -0.080278 -3.965508 -11.203939 -0.085958 -1.027610 3.597828 0.000000 0.000000 2.180027 -16.338316 -1.950766
2.960372 8.556329 -9.547771 -2.790385 8.012192 2.908791 -0.242729 0.168082 0.023463 -5.664775 -2.720802 -23.476772 0.256731 6.016242 16.298603 -1.168801 -1.631974 4.788106 0.293651 1.829226 1.063314 0.173728 -1.068278 1.635073 14.857644 3.710355 0.610829 -0.488312 -4.810476 12.877110 0.016145 2.488199 -2.330633 -0.077243 0.106101 1.504005 1.619525 1.695357 0.883976 1.204534 2.266299 -0.871529 0.085781 1.408330 -0.951813 -2.374444 -1.204425 -5.339369 2.232414 -1.386709 7.013973 0.954299 -0.752522 4.271132 -0.291526 0.644119 -0.230934 -44.039501 7.574168 3.639211 4.257681 -8.556211 -0.901403 -0.301078 -0.217448 6.509337 8.223078 2.593190 0.859230 -3.642270 0.000000 0.000000 -5.215900 18.101326 0.419500 0.818061 0.082791 -0.331934 39.440060 3.180440 13.993054 -12.463213 17.134945 -5.042395 0.381858 -0.081861 -4.008595 -11.362692 -0.119370 -1.084707 3.625981 0.000000 0.000000 2.132866 -16.512726 -2.034516
3.001722 8.622045 -9.639682 -2.817837 8.076053 2.923651 -0.250387 0.166723 0.020545 -5.721288 -2.746572 -23.682547 0.259777 6.062751 16.428238 -1.179455 -1.660595 4.810952 0.293617 1.828629 1.024458 0.169031 -1.079018 1.644761 14.968459 3.733948 0.603107 -0.497017 -4.858937 12.973958 0.014068 2.492715 -2.378914 -0.079651 0.102897 1.493616 1.626017 1.706756 0.885908 1.212523 2.281577 -0.882334 0.084260 1.417770 -0.966193 -2.397678 -1.217448 -5.387932 2.247630 -1.402323 7.065820 0.958148 -0.761483 4.302224 -0.298470 0.645503 -0.233779 -44.418617 7.626718 3.650390 4.287865 -8.634025 -0.910751 -0.304353 -0.220781 6.543624 8.285976 2.599708 0.861905 -3.673447 0.000000 0.000000 -5.287865 18.209518 0.384725 0.818534 0.078800 -0.336169 39.739178 3.195049 14.091875 -12.578897 17.259876 -5.092748 0.383718 -0.083643 -4.053481 -11.534039 -0.158354 -1.151219 3.653883 0.000000 0.000000 2.073315 -16.694208 -2.130980
3.043125 8.687831 -9.731323 -2.845176 8.140148 2.938780 -0.257815 0.165463 0.017711 -5.777562 -2.772158 -23.888044 0.262882 6.109399 16.558247 -1.190075 -1.689087 4.833967 0.293612 1.828110 0.985924 0.164479 -1.089705 1.654540 15.079509 3.757722 0.595688 -0.505657 -4.907266 13.071218 0.012089 2.497733 -2.426506 -0.081971 0.099921 1.483992 1.632706 1.718262 0.888175 1.220621 2.297002 -0.892881 0.082901 1.427298 -0.980245 -2.420600 -1.230246 -5.436090 2.263030 -1.417636 7.118101 0.962260 -0.770301 4.333622 -0.305069 0.647162 -0.236553 -44.795990 7.679881 3.663310 4.318489 -8.711208 -0.919942 -0.307577 -0.223994 6.579415 8.349703 2.607491 0.865146 -3.704506 0.000000 0.000000 -5.357230 18.320951 0.352910 0.819446 0.075121 -0.340289 40.040028 3.210380 14.191777 -12.693397 17.385891 -5.142369 0.385674 -0.085327 -4.097478 -11.699131 -0.194546 -1.213010 3.681911 0.000000 0.000000 2.020030 -16.872114 -2.221014
3.084543 8.753748 -9.822469 -2.872444 8.204308 2.954076 -0.265096 0.164284 0.014970 -5.833582 -2.797551 -24.093084 0.266073 6.156228 16.688740 -1.200629 -1.717341 4.857304 0.293661 1.827748 0.947766 0.160130 -1.100317 1.664446 15.190961 3.781773 0.588729 -0.514207 -4.955444 13.168998 0.010232 2.503344 -2.473302 -0.084181 0.097233 1.475204 1.639605 1.729885 0.890810 1.228832 2.312583 -0.903145 0.081719 1.436915 -0.993925 -2.443189 -1.242805 -5.483827 2.278615 -1.432639 7.170828 0.966634 -0.778950 4.365347 -0.311298 0.649117 -0.239253 -45.171562 7.733678 3.677928 4.349592 -8.787749 -0.928974 -0.310747 -0.227081 6.616773 8.414293 2.616609 0.869043 -3.735438 0.000000 0.000000 -5.423886 18.435753 0.324176 0.820809 0.071776 -0.344284 40.342731 3.226465 14.292789 -12.806676 17.513021 -5.191236 0.387727 -0.086908 -4.140550 -11.857772 -0.227898 -1.270011 3.710067 0.000000 0.000000 1.973004 -17.046448 -2.304613
3.125958 8.819659 -9.913632 -2.899719 8.268454 2.969357 -0.272392 0.163097 0.012224 -5.889620 -2.822957 -24.298153 0.269258 6.203044 16.819201 -1.211188 -1.745612 4.880618 0.293706 1.827372 0.909567 0.155764 -1.110935 1.674340 15.302376 3.805806 0.581740 -0.522762 -5.003632 13.266746 0.008368 2.508918 -2.520148 -0.086396 0.094528 1.466366 1.646490 1.741502 0.893422 1.237037 2.328154 -0.913426 0.080527 1.446527 -1.007626 -2.465796 -1.255377 -5.531587 2.294189 -1.447658 7.223532 0.970996 -0.787606 4.397057 -0.317545 0.651057 -0.241956 -45.547222 7.787444 3.692467 4.380674 -8.864319 -0.938013 -0.313919 -0.230173 6.654063 8.478847 2.625673 0.872916 -3.766376 0.000000 0.000000 -5.490647 18.550426 0.295324 0.822155 0.068418 -0.348284 40.645367 3.242523 14.393760 -12.919999 17.640112 -5.240131 0.389777 -0.088492 -4.183653 -12.016633 -0.261347 -1.327176 3.738218 0.000000 0.000000 1.925770 -17.220900 -2.388425
3.167205 8.885435 -10.005326 -2.927158 8.332317 2.984330 -0.279953 0.161772 0.009355 -5.946056 -2.848669 -24.503857 0.272311 6.249582 16.948915 -1.221836 -1.774233 4.903485 0.293675 1.826794 0.870720 0.151108 -1.121661 1.684002 15.413013 3.829441 0.574085 -0.531467 -5.052061 13.363825 0.006346 2.513695 -2.568060 -0.088740 0.091491 1.456455 1.653107 1.752980 0.895602 1.245099 2.343537 -0.924034 0.079130 1.456024 -1.021776 -2.488791 -1.268226 -5.579854 2.309547 -1.463044 7.275711 0.975026 -0.796453 4.428383 -0.324224 0.652633 -0.244749 -45.925056 7.840447 3.704919 4.411212 -8.941632 -0.947236 -0.317154 -0.233410 6.689442 8.542349 2.633074 0.876027 -3.797473 0.000000 0.000000 -5.560893 18.660801 0.262548 0.822923 0.064639 -0.352435 40.945740 3.257663 14.493370 -13.034840 17.765814 -5.289967 0.391707 -0.090203 -4.227898 -12.183439 -0.298311 -1.390280 3.766211 0.000000 0.000000 1.870842 -17.399742 -2.480115
3.208523 8.951368 -10.096421 -2.954365 8.396657 2.999799 -0.287084 0.160648 0.006658 -6.001976 -2.873985 -24.708778 0.275514 6.296483 17.079601 -1.232371 -1.802379 4.926986 0.293752 1.826528 0.832842 0.146886 -1.132227 1.693914 15.524377 3.853517 0.567165 -0.540028 -5.100239 13.461679 0.004507 2.519415 -2.614688 -0.090924 0.088868 1.447790 1.660053 1.764626 0.898309 1.253327 2.359141 -0.934256 0.077976 1.465648 -1.035422 -2.511353 -1.280765 -5.627566 2.325138 -1.478031 7.328464 0.979380 -0.805118 4.460100 -0.330460 0.654567 -0.247455 -46.300728 7.894212 3.719388 4.442258 -9.018249 -0.956286 -0.320332 -0.236516 6.726514 8.606784 2.641883 0.879742 -3.828440 0.000000 0.000000 -5.628263 18.774710 0.233002 0.824178 0.061215 -0.356461 41.247997 3.273591 14.594172 -13.148376 17.892710 -5.338997 0.393741 -0.091804 -4.271155 -12.343328 -0.332204 -1.448203 3.794343 0.000000 0.000000 1.822613 -17.574760 -2.564948
3.249713 9.017304 -10.187510 -2.981607 8.460826 3.015143 -0.294324 0.159483 0.003932 -6.057951 -2.899344 -24.913790 0.278706 6.343341 17.210173 -1.242922 -1.830583 4.950398 0.293813 1.826218 0.794851 0.142613 -1.142812 1.703791 15.635671 3.877645 0.560333 -0.548579 -5.148402 13.559642 0.002694 2.525243 -2.661189 -0.093094 0.086283 1.439221 1.667020 1.776290 0.901073 1.261570 2.374768 -0.944430 0.076852 1.475288 -1.049001 -2.533846 -1.293253 -5.675195 2.340772 -1.492943 7.381324 0.983793 -0.813746 4.491913 -0.336588 0.656583 -0.250138 -46.675827 7.948179 3.734409 4.473470 -9.094636 -0.965280 -0.323490 -0.239575 6.764186 8.671550 2.651223 0.883747 -3.859350 0.000000 0.000000 -5.694372 18.890133 0.204842 0.825634 0.057937 -0.360434 41.551022 3.289836 14.695422 -13.261443 18.020035 -5.387733 0.395813 -0.093366 -4.314061 -12.500794 -0.365026 -1.504335 3.822521 0.000000 0.000000 1.776767 -17.748419 -2.647226
3.290909 9.083248 -10.278566 -3.008845 8.524999 3.030493 -0.301560 0.158321 0.001207 -6.113918 -2.924696 -25.118786 0.281900 6.390206 17.340761 -1.253470 -1.858778 4.973819 0.293876 1.825910 0.756867 0.138342 -1.153396 1.713668 15.746964 3.901773 0.553499 -0.557131 -5.196567 13.657599 0.000879 2.531061 -2.707703 -0.095266 0.083693 1.430640 1.673983 1.787953 0.903831 1.269812 2.390393 -0.954608 0.075726 1.484927 -1.062584 -2.556342 -1.305744 -5.722827 2.356403 -1.507856 7.434182 0.988205 -0.822374 4.523726 -0.342716 0.658599 -0.252821 -47.050915 8.002150 3.749444 4.504685 -9.171018 -0.974273 -0.326648 -0.242633 6.801876 8.736326 2.660582 0.887761 -3.890257 0.000000 0.000000 -5.760439 19.005608 0.176727 0.827098 0.054664 -0.364406 41.854073 3.306091 14.796689 -13.374492 18.147377 -5.436457 0.397887 -0.094927 -4.356953 -12.658158 -0.397801 -1.560389 3.850703 0.000000 0.000000 1.731027 -17.922018 -2.729399
